<svg id="Capa_1" xmlns="http://www.w3.org/2000/svg" viewBox="0 0 416.9 416.9"><style>.st0{fill:#dddfeb}</style><path class="st0" d="M141.6 256.2l1.1 7 2.7-.7c4.5-1.2 9.3-1.8 14.2-1.8 21.3 0 44.1 11.5 58.1 29.4 12.4 15.6 29.2 25.5 48.5 28.5l2.9.5v-2.9c-.1-20 3.1-40.3 6.2-60 .7-4.8 1.5-9.7 2.2-14.5 4.5-30.7 1.6-59.9-8.9-89-1.2-3.2-2.3-6.4-3.5-9.7-13.1-36-25.6-70-18.8-109.4 4.3-3.6 6.7-8.9 6.7-14.5C253 8.6 244.4 0 233.9 0H183c-10.5 0-19 8.6-19 19.1 0 5.6 2.4 10.8 6.7 14.5C177.4 73 165 107 151.9 143c-1.2 3.2-2.4 6.4-3.5 9.7-10.5 29.2-13.4 58.3-8.9 89 .6 4.8 1.4 9.7 2.1 14.5zm56.7-215.4h20.4c-3.9 41.3 9.1 76.8 21.6 111.2l.5 1.4c1 2.7 2 5.5 3 8.2 2 5.7 3.8 11.5 5.2 17.3h-81c1.4-5.8 3.1-11.6 5.2-17.3 1-2.7 2-5.5 3-8.2l.5-1.4c12.5-34.4 25.5-69.9 21.6-111.2zm79.6 326.1c-3.9-10.2-6.4-20.7-7.8-32l-.3-2.6-2.6.5c-3.3.6-6.7.9-10.2.9-19.1 0-39.5-9.1-53.2-23.8-2.2-2.3-4.3-4.7-6.3-7.1-6.4-7.4-13-15-22.4-20.3-8-4.5-17.3-7.2-27.7-8l-3.1-.2.4 3.1c3.9 28.5 5.9 59-5.8 89.7-4.3 11.2-4 21.4.6 29.5 5.3 9.2 16 15.4 30.9 17.7 9.5 1.5 23.2 2.2 31.4 2.6 2.9.1 10.1.1 13.1 0 8.2-.4 21.9-1.1 31.4-2.6 14.9-2.4 25.5-8.5 30.9-17.7 4.7-8.3 4.9-18.5.7-29.7z"/></svg>