<svg id="Layer_1" data-name="Layer 1" xmlns="http://www.w3.org/2000/svg" viewBox="0 0 175.75 56.38"><defs><style>.cls-1{fill:#c33232;fill-rule:evenodd}</style></defs><title>logo</title><path class="cls-1" d="M392.27 416.82a1.23 1.23 0 0 1 .57.44 2.27 2.27 0 0 1 .41 1.16 2 2 0 0 1-.21.89 1.15 1.15 0 0 1-.7.59 1.13 1.13 0 0 1 .58.51 2.08 2.08 0 0 1 .17 1c0 .71-.07 1.4 0 1.49h-1.19v-1.45a1.26 1.26 0 0 0-.21-.8 1.06 1.06 0 0 0-.74-.19h-1.26v2.44h-1.2v-6.22h2.88a2.31 2.31 0 0 1 .94.16zm-2.62.91v1.67H391a1.66 1.66 0 0 0 .62-.09.69.69 0 0 0 .36-.7.82.82 0 0 0-.35-.77 1.45 1.45 0 0 0-.6-.11zm-4.12-1.07h1.76v6.22h-1.14v-5.23l-1.15 5.23h-1.18l-1.11-5.23v5.23h-1.14v-6.22h1.78l1.07 4.88 1.06-4.88zm-101.91.71c-6.41-4.13-15.1-4.85-29.12-1-14.95 3.51-19.94 5.76-26.48 1.24-2.52-2.22-3.42-5.79-2.74-10.95 1.56-8.39 5.78-16.47 13.27-25.43 4.18-4.66 8.06-8.66 13.19-10.27 3.93-1 3.56 2.08 3.08 2.52a3.82 3.82 0 0 0-2 .5 5.19 5.19 0 0 0-2.06 3.52c-.11 2.72 2.71 2.15 3.93.66 1.31-1.69 3.24-4.92 1.72-7.93a4.47 4.47 0 0 0-3.11-2.06c-4.69-.27-9.06 2-13.1 4.44a57.22 57.22 0 0 0-19.86 23.91c-2.31 5.61-4.39 13.64-1.27 20.18 2.42 4.53 7.43 6.94 13.41 6.44a107.24 107.24 0 0 0 12.67-2.61c3.41-.82 20.87-6.82 26.6 3.62a7.75 7.75 0 0 1 6.67-3.78 21.93 21.93 0 0 1 13.69 4.16c-1.37-2.07-5.26-5.11-8.5-7.2z" transform="translate(-217.5 -368.19)"/><path class="cls-1" d="M256.28 382.32c-3.27-2.14-9.83 2-15.09 9-4.8 6.3-6.88 13.63-4.62 17 3.36 4 9.6-1.81 12.25-4.91l.34-.36a39 39 0 0 0 4.55-6.51l1.3-2.14c.76-.14 1.68-.36 2.73-.66 0 0-4 6.71-3.58 10 .13 1 0 4.7 3.63 5.82 4.79.8 8.62-2.92 12-6.23l.9-.86-.19.77c-1.4 4.88.49 5.91 1.68 6.28 3.57 1 7.85-4.15 7.86-4.15-.11 1.63-.43 3 1.29 4.08 1.63.58 3.28-.29 4.54-1.12 4.51-3.18 8.15-8.19 11.08-12.45h-1.87s-4.62 6.65-7.61 8.1c0 0-.55.27-.86 0s-.24-1.07 0-1.56l11.54-20.07h-5.44l-.64 1.07a2.26 2.26 0 0 1-.19-.25c-3.37-4.66-11 2.52-16.75 10.84a54.9 54.9 0 0 1-7.95 9.4s-4.32 4-6.17 1.12a5.49 5.49 0 0 1-.09-4.1c2.15-6.12 5.86-11.68 10.08-15 1.19-.93 2.49-1.2 3.13-.8a1.36 1.36 0 0 1 .32 1.87 3 3 0 0 0-2.41.93c-1.26 1.33-1.7 2.6-1.29 3.8 1.94 2.77 5.83-2.71 5.64-6.05a3.59 3.59 0 0 0-1.66-2.88 5.75 5.75 0 0 0-5 0c-1.88.71-4.85 3.19-6.58 5.11-2.19 2.41-5.93 5.09-7.1 4.79.38-1 3.54-7.5.22-9.93zm26.22 9.58a76.62 76.62 0 0 1 4.89-6c2.53-2.22 3.54-1.24 3.62-.55-2.35 4.22-5.13 9.06-7.75 13.4l-.82 1.25a12.13 12.13 0 0 1-4.21 4.33 1.24 1.24 0 0 1-1-.11 1.09 1.09 0 0 1-.46-1c.12-1.36 1.5-5.5 5.75-11.23zm-29.59 2.54s0 .14-.07.18-2.37 3.86-2.37 3.86c-1.43 1.91-3.21 4.3-5.44 5.45-.66.22-1.58.37-2-.22-1-1.18-.48-2.82-.07-4.14l.15-.47a38.81 38.81 0 0 1 4.89-8.68.23.23 0 0 1 .09 0v.05a7.9 7.9 0 0 0 4.91 3.7 1 1 0 0 1-.09.26zm2.24-4.56l-1.05 2.43c-.15.13-.39.06-.67 0l-.46-.08a4.21 4.21 0 0 1-2.93-2.6c-.47-2.27 1.47-4.05 2.32-4.69a2.6 2.6 0 0 1 2.84-.29 3 3 0 0 1 .62 2 10.71 10.71 0 0 1-.67 3.24zm68.77 7.31a3.2 3.2 0 0 0-3.1-1.78c-4.31.4-8.52 3.94-10.73 9a25.75 25.75 0 0 0-2.21 8.2 22.64 22.64 0 0 1 7.17-5.46 14.86 14.86 0 0 1 2.58-6.22c.81-1.22 2.44-3.17 4.27-2.65 1.6.54 1 5-1.09 9.25a29.68 29.68 0 0 1-6.41 8.47c-2.15 1.83-5.34 4-8.12 2.33-1.76-1-2.65-3.21-2.47-6 .84-7.95 4.46-14.72 9.64-22.44 5.35-7.17 11.24-14.52 19.17-18.44A5.37 5.37 0 0 1 337 371s-7.45 4.1-11 11.67c-.9 1.92-2.15 4.52-.89 6.82a2.66 2.66 0 0 0 2.78 1.23c4.35-1 7.16-5.07 9.46-8.79 1.33-2.82 2.52-5.62 2.52-8.74 0-.38 0-.88-.06-1.26 2.08-1.1 6.34.85 6.34.85 3.34 1.1 10.43 6.54 12.82 7.58 1.17-1.36 3.09-3.4 4.17-4.43l-1.57-1c-2.5-1.53-5.14-3-7.75-4.41a15.51 15.51 0 0 0-13.18-1.21l-1.84.64c-1.82-2-4.8-1.79-7-1.26-7.9 2.27-15.23 7.8-23.1 17.39-5.78 7.51-9.37 14-11.28 20.41-1.47 4.32-1.92 10.67 1.68 14.43 3.05 3.2 7.11 2.51 10 1.36 6.21-3.06 11.78-9.64 14.56-17.22.67-2.25 1.42-5.43.26-7.86zm14.27-23.73c-.83 9.41-8.15 14.94-10 15.38-1.09.22-3-.26-1.3-4.22a26.38 26.38 0 0 1 11.18-12.16 2.49 2.49 0 0 1 .08 1zm43.43 1.19c-3.94 2.24-8 3.69-13 3.18-1.37 1.55-2.7 3.14-3.93 4.78 6.94 1.76 14.29-2.16 18.39-5.89a29.08 29.08 0 0 0 6.57-8.51 34.56 34.56 0 0 1-8.06 6.44z" transform="translate(-217.5 -368.19)"/><path class="cls-1" d="M89.69 14.21h-5.17l-2.91 4.93h5.16l2.92-4.93z"/><path class="cls-1" d="M368.63 417.86c-.55.37-1.33.06-1-.81a46.67 46.67 0 0 1 3.62-6.74l8-14.31h-5.51c-.26.47-.82 1.44-.82 1.44a8.05 8.05 0 0 0-1.33-1.56c-1.35-.85-3.33-.44-4.69.33-5.93 3.47-10.25 10.32-13.66 15.66 0 0-3.59 5.94-5.58 6.38-1.56.13-1.4-2-1.33-2.46a40.34 40.34 0 0 1 3.4-9.92 75.33 75.33 0 0 0 9.1-7.43c6.45-6.16 11.88-13.14 12.67-14.7a13.58 13.58 0 0 1-1.87.21c-5 6.91-15.1 17-18.18 18.46 1.36-3.28 10.17-18.92 17.66-26.4l1.18-1.14c1.82-1.78 3.71-3.6 5.18-3.9.15 0 .35 0 .53.36a6.74 6.74 0 0 1-1 3.57l-.83 1.71a17.87 17.87 0 0 0 1.95-.48c.9-1.68 1.89-3.57 1.52-5.82a1.67 1.67 0 0 0-1.33-1.41c-2.23-.42-4.67 1.23-6.63 2.57h-.08c-10.07 7.89-18.58 19.26-26 34.79a5.29 5.29 0 0 1-3 .66 25.23 25.23 0 0 0 2.13-5.75 15.2 15.2 0 0 0 .15-1.9 4 4 0 0 0-1.54-3.51 5.34 5.34 0 0 0-4.37.15c-5.32 2.21-9.29 7.66-12.16 12.15a26.7 26.7 0 0 0-3.5 9.4c-.3 2.74.31 4.5 1.87 5.39s3.62 0 4.41-.44c5.38-2.84 9.15-8.53 12.11-13.72a18.74 18.74 0 0 0 3-.38h.05c-.07.24-.71 2.13-.71 2.13-1.88 5.51-2.75 9.26-1 11.48 2.54 3.14 6.74-.11 10.15-4.39-.73 5.13 1.93 5.94 4 5.54 2.33-.63 4.93-3.12 6.13-4.39-.39 1.49-.28 4.17 1.84 4.44 1.45.27 2.54-.47 3.8-1.15 4.51-2.46 9.91-10.69 11.31-13h-1.83c-2 2.94-4.53 6.91-7.73 8.79zm-40.5-.6a2.56 2.56 0 0 1-.39-1.42c-.06-3.09 3.26-8.58 5.61-11.66a8.64 8.64 0 0 0 4.56 4.15c-1.67 3.71-7.4 11.7-9.78 8.93zm10.72-10.57a4.68 4.68 0 0 1-3.51-3.43c-.46-2.24 1.08-4 2.57-4.87a2.56 2.56 0 0 1 2.31-.43 2.33 2.33 0 0 1 .84 2.08 13 13 0 0 1-.13 1.55v.11a21.25 21.25 0 0 1-2.06 5zm22.51 9.58l-.53.47c-.76.68-1.54 1.4-2.48 1a1 1 0 0 1-.49-.71 12.25 12.25 0 0 1 1.68-5.48l.22-.46c2.43-4.06 5.26-8.85 9.41-12.17a2.33 2.33 0 0 1 2.26-.6 1.14 1.14 0 0 1 .4.77 1.21 1.21 0 0 1-.13.42c-1.16 1.88-2.27 3.85-3.34 5.74a80.24 80.24 0 0 1-7 11z" transform="translate(-217.5 -368.19)"/></svg>